:SAMPLES-PER-SECOND 30
:FULLY-SPECIFIED
:DEGREES
176
root  -61.8953 39.8129 17.933 176.162 -23.7558 174.552
RightUpLeg  -17.8807 -28.5635 -1.86441
RightLeg  15.9995 -2.60731 -0.386017
RightFoot  -2.36891 -0.141003 1.5977
RightToes  -5.8209e-011 0 -3.6325e-017
Spine  12.3124 -0.123842 -0.257497
Spine1  11.0611 2.72477 -10.1404
HEad  -6.0579 -18.2939 4.29492
LeftShoulder1  0.0554652 3.33804 -27.1323
LeftArm  -15.6714 1.37686 -25.3431
LeftForeArm  46.9065 -78.2646 -73.2974
LeftHand  -0.0929728 1.83449 2.77629
RightShoulder  -0.203253 -4.16064 23.2841
RightArm  -6.37513 3.16049 52.2507
RightForeArm  33.1135 77.203 62.1679
RightHand  -0.0959859 1.20567 -1.8107
LeftUpLeg  -0.249028 5.31389 -4.48349
LeftLeg  18.0205 3.33824 1.41193
LeftFoot  -11.6831 0.0791673 2.99532
LeftToes  8.00323e-011 7.86695e-011 -1.03868e-010
177
root  -62.1331 39.8467 18.138 175.334 -18.6396 174.647
RightUpLeg  -18.7344 -30.067 -2.49833
RightLeg  21.432 -1.26172 -0.851034
RightFoot  -3.28908 -0.0580522 0.509802
RightToes  -5.8209e-011 0 -3.6325e-017
Spine  11.5857 -0.477366 -0.436273
Spine1  11.2399 2.24 -10.0205
HEad  -6.56511 -17.0136 5.31186
LeftShoulder1  0.00760075 3.4806 -26.909
LeftArm  -14.611 4.48415 -25.8595
LeftForeArm  54.519 -78.6068 -81.4116
LeftHand  -0.0884731 1.40072 2.36689
RightShoulder  -0.276201 -4.3726 24.5828
RightArm  -7.25489 -0.372378 50.6592
RightForeArm  43.4796 78.1055 72.8238
RightHand  -0.102399 1.17745 -1.9525
LeftUpLeg  0.971862 7.17205 -4.5055
LeftLeg  17.2343 6.53829 1.90286
LeftFoot  -11.608 0.0763872 2.84625
LeftToes  8.00323e-011 7.86695e-011 -1.03868e-010
178
root  -62.2757 39.8409 18.236 174.763 -13.0757 174.886
RightUpLeg  -19.4062 -28.0575 -3.55323
RightLeg  25.6045 -0.128926 -0.273714
RightFoot  -3.94691 -0.00824777 -0.255561
RightToes  -5.8209e-011 0 -3.6325e-017
Spine  10.873 -0.393035 -1.09358
Spine1  11.0183 1.84815 -8.87067
HEad  -6.98642 -15.5211 5.20836
LeftShoulder1  -0.0156331 3.55075 -27.3365
LeftArm  -13.4957 6.92794 -26.4352
LeftForeArm  61.2599 -78.7486 -87.5319
LeftHand  -0.0717321 1.76481 1.98852
RightShoulder  -0.237105 -4.24263 24.603
RightArm  -9.02562 -4.14522 50.0219
RightForeArm  57.2377 78.6275 85.7659
RightHand  -0.0431136 1.5495 -0.906687
LeftUpLeg  1.74487 9.05987 -3.90676
LeftLeg  16.9775 10.0048 1.98784
LeftFoot  -11.839 0.0825754 2.64574
LeftToes  8.00323e-011 7.86695e-011 -1.03868e-010
179
root  -62.4328 39.8464 18.3153 174.518 -8.36976 174.716
RightUpLeg  -20.1449 -28.4574 -4.93216
RightLeg  27.7469 1.89157 0.843441
RightFoot  -4.78436 -0.00321144 -0.327072
RightToes  -5.8209e-011 0 -3.6325e-017
Spine  10.0936 -0.775269 -1.4645
Spine1  11.1314 1.2424 -8.41734
HEad  -7.41565 -15.6702 5.92419
LeftShoulder1  -0.0620554 3.68734 -27.4537
LeftArm  -12.221 8.02301 -27.2682
LeftForeArm  63.9083 -78.7492 -90.3914
LeftHand  -0.11409 1.31521 3.1127
RightShoulder  -0.350012 -4.57702 25.5833
RightArm  -10.1371 -6.33495 48.3664
RightForeArm  70.3289 78.5655 98.3516
RightHand  -0.0712625 -0.0410443 -1.48984
LeftUpLeg  2.36516 9.23838 -4.06193
LeftLeg  16.4706 14.3874 2.21921
LeftFoot  -11.831 0.0802921 2.17882
LeftToes  8.00323e-011 7.86695e-011 -1.03868e-010
180
root  -62.5617 39.8856 18.358 174.457 -3.7969 174.768
RightUpLeg  -20.8229 -30.0338 -5.55828
RightLeg  27.4013 1.40371 0.576915
RightFoot  -4.91372 -0.0097596 -0.226437
RightToes  -5.8209e-011 0 -3.6325e-017
Spine  9.24731 -1.1886 -2.14814
Spine1  11.3455 0.326384 -6.9276
HEad  -7.80201 -15.7349 6.90607
LeftShoulder1  -0.154922 3.95634 -28.1069
LeftArm  -10.8885 8.20466 -27.4169
LeftForeArm  65.6212 -78.7532 -91.8576
LeftHand  -0.0879469 1.3547 2.37876
RightShoulder  -0.353314 -4.58588 25.6018
RightArm  -11.3653 -7.97015 47.2863
RightForeArm  81.8369 78.1643 108.233
RightHand  0.0199454 -0.671825 0.569232
LeftUpLeg  2.80252 9.13412 -4.05287
LeftLeg  15.8612 18.9591 2.38536
LeftFoot  -11.5054 0.0723771 2.23827
LeftToes  8.00323e-011 7.86695e-011 -1.03868e-010
181
root  -62.5936 39.9303 18.3283 174.137 1.27877 174.973
RightUpLeg  -21.0565 -31.5901 -5.48265
RightLeg  25.2489 -0.187841 -0.318815
RightFoot  -4.98142 0.00871036 -0.520041
RightToes  -5.8209e-011 0 -3.6325e-017
Spine  8.60307 -1.30022 -2.5076
Spine1  11.7095 -0.133657 -5.7871
HEad  -7.94576 -18.1959 6.9158
LeftShoulder1  -0.16639 3.98604 -28.3269
LeftArm  -10.8607 8.29369 -28.2926
LeftForeArm  67.087 -78.7898 -92.3195
LeftHand  -0.0893174 2.02765 2.75292
RightShoulder  -0.34455 -4.5572 25.639
RightArm  -12.1286 -9.00174 46.2358
RightForeArm  90.9494 77.587 115.939
RightHand  0.114055 -0.287386 2.64691
LeftUpLeg  3.72797 8.99717 -3.69353
LeftLeg  15.056 24.0434 2.54227
LeftFoot  -11.2162 0.0660749 1.54317
LeftToes  8.00323e-011 7.86695e-011 -1.03868e-010
